<svg width="166" height="61" viewBox="0 0 166 61" fill="none" xmlns="http://www.w3.org/2000/svg">
<path fill-rule="evenodd" clip-rule="evenodd" d="M21.9936 20.0719C21.9981 20.1158 22.0073 20.1038 21.9617 20.1038V20.1358C21.9662 20.1797 21.9753 20.1678 21.9297 20.1678V20.1997C21.9342 20.2436 21.9434 20.2316 21.8977 20.2316V20.2636C21.9044 20.3701 21.909 20.3037 21.8658 20.3275V20.3594C21.8703 20.4033 21.8795 20.3914 21.834 20.3914V20.4234C21.8405 20.5298 21.8452 20.4634 21.802 20.4872V20.5192C21.8085 20.6257 21.8132 20.5592 21.7701 20.583V20.6469C21.7743 20.6907 21.7837 20.6788 21.7381 20.6788V20.7747C21.7424 20.8185 21.7517 20.8066 21.7062 20.8066V20.9343C21.7104 20.9782 21.7197 20.9663 21.6742 20.9663C21.6742 21.641 21.6288 21.9315 21.8343 22.5955C22.2139 23.8216 23.084 25.1305 23.7325 26.1903C24.6481 27.6869 25.6698 29.1309 26.2934 30.9746C27.2985 33.9466 26.4332 37.1319 24.718 39.5563C24.2667 40.1944 23.5876 41.0302 23.0183 41.513C23.0183 42.0135 23.1598 43.424 23.2081 44.0531L23.306 45.328C23.3171 45.761 23.3805 46.1685 23.4021 46.6049L23.7066 49.7167C23.7514 50.0344 23.8953 51.4568 23.9443 51.5493L24.5596 49.9956C25.0063 48.9751 25.5516 48.0976 26.1182 47.1824C27.0803 45.6278 28.2562 44.2163 29.3961 42.7976C29.5694 42.582 29.7334 42.4121 29.9118 42.1969C30.2465 41.7932 30.5759 41.428 30.9176 40.9987C32.977 38.4112 34.7349 34.8308 33.3532 31.2871C33.1331 30.7225 32.881 30.2982 32.587 29.8517C32.202 29.2671 31.9054 29.1146 31.6096 28.6259C31.134 27.8401 30.2637 25.9108 31.8949 25.8244C33.0486 25.7632 34.5854 26.1889 35.6194 26.4672C38.5439 27.2545 42.2605 28.8878 44.7831 30.4588C45.2598 30.7555 45.6643 31.0269 46.1143 31.3318C46.5724 31.6422 46.9484 31.9678 47.3581 32.2912C48.0917 32.8701 48.8944 33.8372 49.3726 34.6515C50.1898 36.0433 50.2758 37.9227 50.3499 38.059L50.7544 37.2396C50.8315 37.0866 50.8839 36.9468 50.9564 36.803C51.0319 36.6536 51.0908 36.5411 51.1616 36.3696C51.3092 36.012 51.6067 35.4591 51.7593 35.0835C51.8117 34.9546 51.8874 34.7802 51.9568 34.6425C52.1392 34.2808 53.4235 31.2863 53.4355 31.0879C53.4354 30.3322 53.3744 29.4329 53.1819 28.7353C53.0083 28.1063 52.6789 27.5357 52.2315 27.0988C50.3364 25.2485 47.1114 24.9682 44.7005 24.2533C44.1136 24.0792 41.2357 23.1389 40.9305 22.8747C40.3173 22.6946 37.9424 21.4192 37.4051 21.107C37.2397 21.0109 34.2321 19.207 34.1555 19.1176C33.9609 19.0447 33.6147 18.8257 33.4184 18.7087C33.1929 18.5741 32.9417 18.4511 32.7072 18.3325C30.0297 16.9785 26.8885 16.1187 24.1824 17.8832C23.4286 18.3747 22.335 19.2495 21.9934 20.0722L21.9936 20.0719Z" fill="#89163B"/>
<path fill-rule="evenodd" clip-rule="evenodd" d="M23.9454 51.5491C23.9454 52.2666 24.6034 55.2716 24.7964 55.9396C25.13 57.0944 25.654 58.5843 26.5235 59.4489C26.7793 59.7032 27.2124 60.0435 27.5941 60.1344C28.0334 60.239 28.7539 60.207 29.2911 60.207C29.0841 59.723 28.7932 59.5339 28.8023 58.5458C28.8151 57.1754 29.9975 55.134 30.6455 53.9742C30.8772 53.5595 33.435 49.324 33.9164 48.7815C33.9665 48.7249 33.9207 48.7664 33.9793 48.7201C34.578 47.8578 35.1618 47.003 35.7726 46.1377C36.3824 45.2741 36.9926 44.4531 37.6065 43.5671C38.144 42.791 39.3949 41.0964 39.7956 40.2648C40.1825 39.4619 40.2566 38.9972 40.8408 37.9582C41.1236 37.4554 41.4317 37.0201 41.8104 36.7235C42.3724 36.2832 42.9009 36.5071 43.4069 36.8499C44.2051 37.3905 44.8617 38.272 45.2827 39.4133C46.0612 41.5231 45.9034 44.002 45.4943 46.2176C45.4377 46.5249 45.349 46.8451 45.3031 47.1479C45.4961 47.0149 47.6282 43.3227 47.9457 42.7312L50.0529 38.6761C50.1605 38.4609 50.2671 38.28 50.3509 38.0587C50.2768 37.9223 50.1909 36.043 49.3736 34.6511C48.8955 33.8369 48.0928 32.8699 47.3591 32.2908C46.9494 31.9675 46.5734 31.6419 46.1153 31.3315C45.6653 31.0265 45.2608 30.7552 44.7842 30.4585C42.2616 28.8874 38.545 27.2542 35.6204 26.4669C34.5865 26.1885 33.0496 25.7629 31.8959 25.824C30.2648 25.9105 31.1351 27.8399 31.6106 28.6255C31.9065 29.1143 32.2031 29.2668 32.588 29.8514C32.882 30.2979 33.1341 30.7222 33.3542 31.2868C34.7359 34.8305 32.9781 38.4108 30.9186 40.9984C30.5769 41.4277 30.2476 41.7929 29.9129 42.1965C29.7345 42.4118 29.5704 42.5817 29.3971 42.7973C28.2572 44.2159 27.0813 45.6275 26.1192 47.182C25.5526 48.0973 25.0073 48.9748 24.5607 49.9953L23.9453 51.549L23.9454 51.5491Z" fill="#EE6B23"/>
<path fill-rule="evenodd" clip-rule="evenodd" d="M110.505 19.4015C110.505 18.3373 110.94 17.099 111.614 16.3921C111.821 16.1755 111.856 16.1039 112.133 15.889C113.601 14.75 115.426 14.7163 116.923 15.8567L117.689 16.6555C118.082 17.1786 118.352 17.8024 118.485 18.4457C118.772 19.8414 118.379 21.4991 117.441 22.4426C117.323 22.5614 117.336 22.5937 117.192 22.704C116.864 22.9548 116.815 23.0813 116.273 23.3501C114.951 24.0061 113.337 23.9001 112.189 22.9533C111.583 22.4531 111.148 21.9017 110.851 21.1626C110.666 20.7033 110.505 20.0513 110.505 19.4015L110.505 19.4015ZM118.359 12.5686C117.996 12.3253 117.963 12.2724 117.516 12.0073C116.678 11.5101 115.296 11.068 114.24 11.068H113.634C112.029 11.068 110.132 11.9205 109.043 12.9275C108.948 13.0159 108.886 13.1 108.785 13.18C108.641 13.2947 108.644 13.2915 108.53 13.4354C108.449 13.5363 108.364 13.5942 108.279 13.6956C105.733 16.7362 105.428 20.8425 107.461 24.2651C107.795 24.8268 107.992 24.9989 108.338 25.4314C108.856 26.078 109.884 26.8478 110.611 27.214C112.472 28.1517 114.448 28.2922 116.435 27.5027C117.255 27.1768 117.694 26.8612 118.391 26.394C118.391 27.8307 118.37 28.6662 117.298 29.7386C117.093 29.9428 116.94 30.0592 116.708 30.2349C116.599 30.3178 116.491 30.3831 116.378 30.4477C116.267 30.5114 116.122 30.596 116.001 30.6456C115.16 30.9929 114.9 31.0877 113.889 31.0877C112.451 31.0877 111.071 30.2078 110.313 29.0761C109.109 29.8826 107.909 30.6963 106.705 31.5028C106.74 31.634 107.216 32.1922 107.307 32.3058C107.655 32.7399 108.31 33.3211 108.762 33.6604C111.966 36.0621 116.254 35.9893 119.436 33.601L119.81 33.3044C119.947 33.1971 120.017 33.1161 120.152 33.0082C120.343 32.8557 120.776 32.3654 120.953 32.1487C121.819 31.0884 122.519 29.7727 122.8 28.3767C122.947 27.6493 123.021 26.8603 123.021 25.979C123.021 25.0937 123.053 24.2701 123.053 23.3608V11.0042H118.359V12.5687L118.359 12.5686Z" fill="#171637"/>
<path fill-rule="evenodd" clip-rule="evenodd" d="M76.0211 10.2051C76.0633 10.2536 76.0541 10.2406 76.0815 10.3044L76.3603 11.1431C76.4715 11.4765 76.5634 11.7694 76.6793 12.1012C76.9059 12.7493 77.1168 13.3796 77.3343 14.0325L78.6393 17.8681H73.4349L76.0211 10.2051ZM64.8459 27.6065H70.1461C70.2018 27.3676 70.2985 27.1681 70.3739 26.9403C70.4461 26.722 70.5211 26.4977 70.5972 26.2695L71.9661 22.2105H80.108C80.1574 22.4223 80.26 22.6826 80.3275 22.8851L81.928 27.6066H87.1643C87.155 27.4947 87.0963 27.3429 87.0551 27.2369C87.0033 27.1033 86.9705 26.995 86.9183 26.8628L85.3078 22.4385C85.2187 22.2001 85.1342 21.9425 85.0344 21.6902C84.8388 21.1954 84.6886 20.7163 84.4958 20.2174L83.9591 18.7425C83.7828 18.234 83.5909 17.7664 83.4246 17.2654C83.1491 16.4352 82.6518 15.1342 82.3475 14.3194L81.0142 10.6399C80.4316 8.95967 79.6896 7.12786 79.1299 5.46775C79.0646 5.27429 78.6193 4.12366 78.6072 3.97888H73.4665C73.4353 4.11308 73.3833 4.21199 73.3428 4.33401L72.3928 6.9281C72.2206 7.43892 72.0306 7.89443 71.8583 8.40525C71.5475 9.32725 71.0873 10.4266 70.7806 11.3506C70.7034 11.5832 70.6097 11.8298 70.5154 12.0753C70.1045 13.1459 69.7008 14.3806 69.2932 15.4189C68.8363 16.5821 68.4107 17.9227 67.9521 19.0907L67.5412 20.2124C67.1755 21.1583 66.8367 22.2184 66.4647 23.159C66.366 23.4084 66.2974 23.6328 66.2002 23.8843C65.9222 24.6032 65.6735 25.3868 65.3884 26.1059L64.8457 27.6066L64.8459 27.6065Z" fill="#171637"/>
<path fill-rule="evenodd" clip-rule="evenodd" d="M11.8524 8.54484L11.1274 9.16877C11.0956 9.19951 11.0585 9.22717 11.0231 9.25677C10.3332 9.83429 9.42269 11.1365 8.99062 11.8226C7.23689 14.608 5.96439 17.8254 6.25409 21.3167C6.37443 22.7672 6.82096 24.1671 7.6103 25.326C7.72274 25.4911 7.85955 25.6367 7.94969 25.7869C8.59022 26.1005 14.2806 26.6803 15.2742 26.8267C16.0187 26.9364 16.6376 27.034 17.3426 27.2169C17.4545 27.2459 17.5109 27.2781 17.6202 27.2875L16.4675 26.4317C16.2754 26.2915 16.0985 26.1477 15.9161 25.9935L14.3641 24.5765C14.0457 24.2215 13.7589 23.8853 13.4919 23.4683C12.3389 21.6675 12.5796 18.993 13.4694 17.0982C13.8865 16.2101 14.5864 15.3524 15.151 14.8218C16.5581 13.499 18.354 12.6183 20.2718 12.022C20.9899 11.7988 22.7763 11.3466 23.4928 11.2916C24.0968 11.239 24.7391 11.1184 25.3647 11.054C27.5114 10.8329 28.9943 10.846 31.1335 11.381C33.031 11.8557 34.7667 12.5695 36.485 13.4333C36.6069 13.4946 36.718 13.5522 36.8475 13.614C36.954 13.6647 37.125 13.728 37.1978 13.8075C37.8982 14.0847 42.1109 16.5539 43.2261 17.139C43.4339 17.248 43.9421 17.4913 44.0899 17.6134C44.3459 17.7074 44.6514 17.8878 44.9127 18.0084C45.2044 18.143 45.4711 18.2644 45.7736 18.3927C46.2823 18.6085 47.0543 18.9157 47.6368 19.0213C47.6122 18.9852 46.6355 18.2564 46.4628 18.0845C46.3651 17.9873 46.3345 17.9588 46.2272 17.8732C45.9004 17.6125 45.2869 16.8361 45.011 16.503C44.5667 15.9668 43.8378 14.7011 43.5387 14.1119L42.5706 12.0467C42.4719 11.8349 42.3955 11.6561 42.3042 11.451L42.0173 10.8794L41.2671 10.1255C39.3433 8.35405 37.3444 7.23671 34.7734 6.30521C32.5685 5.50616 29.8028 4.98542 27.3621 4.84459C26.8933 4.81754 26.427 4.80656 25.9569 4.78781C25.7447 4.77937 24.648 4.74535 24.5295 4.82464C24.1715 4.76015 22.9732 4.88096 22.5558 4.9212C19.6752 5.19945 17.0071 5.82017 14.4083 7.02209C13.7881 7.30897 13.0046 7.74934 12.449 8.12777L11.8526 8.54491L11.8524 8.54484Z" fill="url(#paint0_linear_753_3519)"/>
<path fill-rule="evenodd" clip-rule="evenodd" d="M131.642 24.6056C129.542 24.6056 129.809 22.5489 130.725 21.7733C131.848 20.8228 134.019 20.8862 135.382 20.3952C135.514 20.3476 135.673 20.2592 135.793 20.2314C135.793 20.9933 135.748 21.5204 135.515 22.0607C135.407 22.3102 135.271 22.5248 135.122 22.7219C134.935 22.9705 134.719 23.2263 134.479 23.4198C134.423 23.4653 134.405 23.4888 134.342 23.5386C133.609 24.1187 132.605 24.6056 131.642 24.6056H131.642ZM126.565 15.8571L130.333 16.8149C130.365 16.4263 131.004 15.5815 131.418 15.2821C132.419 14.5592 134.026 14.3828 134.986 15.0993C135.298 15.3324 135.761 15.8511 135.761 16.3679C135.761 17.2272 135.187 17.3728 134.452 17.5498C132.145 18.1055 129.532 18.2348 127.446 19.6755C126.843 20.0918 126.206 20.7987 125.917 21.4673C125.22 23.082 125.457 25.3822 126.636 26.5779C126.952 26.8977 127.308 27.1454 127.71 27.3562C128.013 27.5154 128.452 27.6548 128.794 27.7412C130.51 28.1742 132.554 27.8057 134.096 27.1873C134.649 26.9656 135.02 26.769 135.518 26.4384C135.605 26.3809 135.707 26.2889 135.793 26.2659V27.6389H140.263L140.263 19.5607C140.264 19.2898 140.229 19.1548 140.231 18.8905C140.238 17.4217 140.357 16.2256 139.86 14.7271C139.603 13.9538 139.219 13.1978 138.706 12.688C138.488 12.4706 138.347 12.3051 138.085 12.1275C137.991 12.0636 137.937 12.0146 137.843 11.9551C136.236 10.943 133.801 10.7927 131.961 11.0993C130.411 11.3575 129.26 12.0087 128.169 13.0869L127.828 13.4803C127.624 13.7425 127.403 14.0373 127.237 14.3257C127.048 14.6527 126.592 15.5304 126.565 15.857L126.565 15.8571Z" fill="#171637"/>
<path fill-rule="evenodd" clip-rule="evenodd" d="M156.706 24.605C156.276 24.605 155.853 24.4938 155.596 24.3095C155.329 24.1174 155.109 23.8036 155.109 23.3598C155.109 21.9139 156.128 21.4013 157.274 21.0861C158.232 20.8225 159.558 20.7133 160.445 20.3944C160.578 20.3469 160.737 20.2587 160.856 20.2307C160.856 21.0735 160.959 21.335 160.59 22.0721C160.341 22.5703 160.055 22.9311 159.684 23.3045C159.332 23.6581 158.851 23.946 158.409 24.1687C157.944 24.402 157.255 24.605 156.706 24.605ZM151.629 15.8565C151.948 15.9308 152.245 16.0191 152.567 16.0993C152.897 16.1813 153.195 16.2559 153.513 16.3354C154.136 16.4911 154.765 16.6673 155.397 16.8143C155.468 16.5098 155.691 16.1843 155.843 15.952C155.931 15.8183 156.024 15.7232 156.126 15.5958C156.324 15.3459 156.995 14.9457 157.34 14.8304C157.488 14.7809 157.702 14.7323 157.882 14.7016C158.668 14.568 159.425 14.6621 160.072 15.1084C160.746 15.5742 161.135 16.6508 160.529 17.1569C160.356 17.3009 160.03 17.4149 159.796 17.4784C159.248 17.6275 158.642 17.7422 158.051 17.8402C156.945 18.0237 155.673 18.303 154.618 18.6541C153.272 19.1021 151.93 19.8498 151.22 21.0346C151.156 21.1398 151.07 21.2821 151.026 21.3841C150.456 22.7216 150.451 24.1906 151.004 25.5176C151.107 25.766 151.264 26.0226 151.414 26.2246C153.294 28.7606 157.834 28.095 160.312 26.6147C160.411 26.5553 160.481 26.5128 160.583 26.4386C160.668 26.3764 160.763 26.2902 160.856 26.2652V27.6382H165.326L165.328 19.3036C165.327 19.0919 165.294 18.9723 165.295 18.73C165.295 18.3264 165.327 17.9822 165.327 17.5486C165.327 16.5364 165.19 15.5195 164.931 14.7508C164.794 14.3431 164.542 13.7227 164.318 13.3845C163.898 12.7488 163.546 12.3837 162.906 11.9545C162.6 11.7488 162.219 11.5604 161.835 11.4298C160.535 10.9883 159.696 10.9712 158.334 10.9712C156.746 10.9712 155.157 11.5158 153.991 12.4076L153.233 13.0861C152.784 13.5712 152.335 14.2197 152.044 14.8027C151.95 14.9919 151.647 15.6381 151.629 15.8564V15.8565Z" fill="#171637"/>
<path fill-rule="evenodd" clip-rule="evenodd" d="M93.5822 12.6966V11.0043H88.8887V27.6076H93.5822V17.9649C93.5822 17.5921 93.7282 17.1584 93.8587 16.9003C94.0053 16.6104 94.168 16.3263 94.3881 16.0886C94.7526 15.6948 95.457 15.219 96.2004 15.219C97.1185 15.219 97.6578 15.4195 98.2682 16.0249C98.7231 16.4761 99.0422 17.1284 99.0422 17.8053V27.7353H103.512V17.8691C103.512 15.2777 102.197 12.8494 100.218 11.6487C98.6451 10.6945 96.797 10.673 95.1571 11.4934C94.2821 11.9313 93.8048 12.5476 93.5823 12.6965L93.5822 12.6966Z" fill="#171637"/>
<path fill-rule="evenodd" clip-rule="evenodd" d="M151.215 55.6415H155.366V48.1382C155.366 47.0586 155.411 46.3802 155.814 45.6805C156.119 45.1493 156.858 44.626 157.696 44.626C158.242 44.626 158.681 44.6055 159.176 44.8707C159.999 45.3121 160.41 46.2277 160.41 47.2442V55.6415H164.593V46.4778C164.593 45.1556 164.439 44.133 163.859 43.0614C163.558 42.506 163.282 42.219 162.83 41.8233C162.718 41.725 162.596 41.6315 162.464 41.5502C161.369 40.8728 160.559 40.8264 159.261 40.8264C158.841 40.8264 158.286 40.9614 157.984 41.0818C157.511 41.2697 157.386 41.3095 156.943 41.6051C156.346 42.0028 156.152 42.26 155.741 42.7022L155.366 43.1253V35.8135H151.215V55.6416V55.6415Z" fill="#171637"/>
<path fill-rule="evenodd" clip-rule="evenodd" d="M65.3574 55.6412H69.5721V48.2975H78.64V44.5298H69.5721V40.4109H79.8534V36.6433H65.3574V55.6412Z" fill="#171637"/>
<path fill-rule="evenodd" clip-rule="evenodd" d="M7.94864 25.7872C7.8585 25.637 7.72169 25.4913 7.60925 25.3263C6.81991 24.1673 6.37338 22.7675 6.25304 21.3169C5.96327 17.8257 7.23577 14.6083 8.98957 11.8228C9.42164 11.1367 10.3321 9.83453 11.022 9.25701C11.0574 9.22741 11.0945 9.19975 11.1263 9.16901L11.8514 8.54508L12.4478 8.12795C13.0034 7.74952 13.7869 7.30915 14.4071 7.02226C17.0058 5.82034 19.6741 5.19962 22.5546 4.92138C22.9719 4.88113 24.1703 4.76032 24.5283 4.82481C24.6468 4.74552 25.7436 4.77954 25.9557 4.78798C26.4259 4.8068 26.8922 4.81771 27.3609 4.84477C29.8016 4.9856 32.5673 5.50633 34.7723 6.30538C37.3432 7.23689 39.3421 8.35423 41.266 10.1256L42.0161 10.8795C41.9786 10.7104 41.7063 10.2245 41.6116 10.0352C41.301 9.41391 41.0465 9.0107 40.6935 8.43097C40.4526 8.0352 39.6665 7.00646 39.3101 6.65334C38.9703 6.3167 39.1377 6.42666 38.6877 6.03048L38.192 5.56828C37.6285 5.06596 36.8028 4.50813 36.1592 4.12079C36.02 4.03708 35.9158 3.97996 35.7764 3.89692C35.6968 3.84957 35.6399 3.82794 35.5678 3.78629C34.4951 3.16611 32.9605 2.58383 31.7946 2.19529C30.9898 1.92709 29.637 1.54069 28.8213 1.36906C27.2365 1.03563 26.2168 0.825889 24.5605 0.58501C24.0045 0.504114 22.8446 0.366497 22.2844 0.338773L19.889 0.21167C19.474 0.21167 19.0588 0.212206 18.6438 0.21167L17.7168 0.242609C17.5637 0.247162 17.5709 0.268659 17.4306 0.275623C16.1534 0.339309 14.5295 0.559094 13.2667 0.869016C13.2163 0.881405 13.1848 0.886896 13.1385 0.90049C13.1283 0.903504 13.0987 0.912812 13.0892 0.916161C13.0817 0.918839 13.0722 0.922857 13.0655 0.925469L13.0194 0.946028C12.8594 0.949845 12.1201 1.17258 11.9346 1.22936C10.8289 1.56781 9.53602 2.10596 8.54397 2.65998C7.46922 3.26027 6.59216 3.88406 5.70498 4.70615L4.05666 6.4742C4.00114 6.54874 3.96237 6.59682 3.90217 6.67095C3.59626 7.04777 3.1954 7.69976 2.93644 8.1319C2.43988 8.96048 2.17797 9.60718 1.82646 10.5022C0.67256 13.4405 0.259308 18.2128 1.53061 21.0926C2.1015 22.3858 2.87443 23.3484 4.0203 24.1586C4.91457 24.7908 6.27976 25.3699 7.38571 25.6464C7.56706 25.6917 7.76977 25.7724 7.9487 25.7871L7.94864 25.7872Z" fill="url(#paint1_radial_753_3519)"/>
<path fill-rule="evenodd" clip-rule="evenodd" d="M125.321 44.1791C126.019 44.1791 126.353 44.1502 127.003 44.4766C127.32 44.6357 127.6 44.8787 127.808 45.1411L128.099 45.552C128.342 45.917 128.642 46.7406 128.642 47.2124H122.48C122.493 46.6011 122.968 45.6485 123.364 45.1589C123.808 44.6077 124.563 44.1791 125.321 44.1791ZM118.393 48.3938C118.393 50.442 119.077 52.383 120.428 53.7339C121.223 54.5286 121.879 54.9863 122.913 55.3999C124.244 55.932 125.031 55.961 126.471 55.961C127.299 55.961 128.305 55.736 129.025 55.4505C129.273 55.3524 129.477 55.2393 129.717 55.1203C129.964 54.9975 130.132 54.8825 130.353 54.7349C130.581 54.5831 130.732 54.4582 130.937 54.2966C131.212 54.079 131.772 53.5317 131.963 53.247L129.6 51.1397C129.514 51.1969 129.376 51.3253 129.288 51.4022C129.186 51.4915 129.075 51.5757 128.966 51.6555C128.246 52.1849 127.36 52.6084 126.375 52.6084C125.628 52.6084 125.221 52.6392 124.504 52.3398C123.835 52.0601 123.264 51.5948 122.937 50.9379C122.801 50.6659 122.573 50.179 122.544 49.8307H132.09C132.774 49.8307 132.697 50.1192 132.697 48.3938C132.697 47.2993 132.444 46.2197 132.166 45.3803C131.78 44.2109 130.957 42.9739 129.984 42.2309C129.81 42.0983 129.653 41.9903 129.459 41.8612C128.552 41.2554 127.264 40.8266 126.024 40.8266C125.095 40.8266 124.57 40.7995 123.642 41.0633C123.089 41.2206 122.858 41.3238 122.363 41.5716C121.506 42.0001 120.714 42.6358 120.121 43.3851C119.007 44.7925 118.393 46.4793 118.393 48.3938L118.393 48.3938Z" fill="#171637"/>
<path fill-rule="evenodd" clip-rule="evenodd" d="M95.0513 43.1248V41.0813H90.9004V55.6411H95.0513V48.1377C95.0513 47.0581 95.0969 46.3797 95.4991 45.68C95.8045 45.1488 96.5431 44.6255 97.3821 44.6255C97.928 44.6255 98.3668 44.605 98.8615 44.8702C99.6848 45.3116 100.096 46.2273 100.096 47.2437V55.6411H104.279V46.4773C104.279 45.4625 104.172 44.5549 103.85 43.7128L103.151 42.4639C103.046 42.3397 102.965 42.2409 102.85 42.127C102.789 42.0666 102.753 42.0261 102.691 41.9667L102.15 41.5497C102.019 41.469 101.884 41.3786 101.746 41.3149C100.709 40.8344 100.079 40.8258 98.9465 40.8258C98.5268 40.8258 97.972 40.9608 97.6693 41.0812C95.781 41.8321 95.4263 42.8734 95.0511 43.1247L95.0513 43.1248Z" fill="#171637"/>
<path fill-rule="evenodd" clip-rule="evenodd" d="M41.1239 52.8532C41.213 52.8132 41.3348 52.6292 41.4068 52.5403L42.2372 51.5188C42.4259 51.2824 42.597 51.0592 42.7797 50.816C43.5746 49.7563 44.1031 49.0018 44.8277 47.915C44.9097 47.792 44.9825 47.6826 45.0706 47.5512C45.1246 47.4704 45.1411 47.4365 45.1927 47.3539C45.2451 47.2699 45.283 47.2419 45.3037 47.1487C45.3496 46.8458 45.4383 46.5256 45.495 46.2184C45.904 44.0027 46.0618 41.5238 45.2833 39.4141C44.8623 38.2728 44.2057 37.3913 43.4075 36.8506C42.9015 36.5078 42.373 36.2839 41.811 36.7242C41.4323 37.0208 41.1242 37.4561 40.8414 37.9589C40.2572 38.9979 40.1831 39.4626 39.7962 40.2655C39.3956 41.0971 38.1446 42.7917 37.6071 43.5678C36.9933 44.4538 36.383 45.2748 35.7733 46.1385C35.1624 47.0038 34.5786 47.8585 33.98 48.7208C33.9214 48.7671 33.9672 48.7257 33.917 48.7822C33.4356 49.3247 30.8778 53.5603 30.6461 53.9749C29.9981 55.1346 28.8157 57.1761 28.8029 58.5465C28.7938 59.5346 29.0847 59.7237 29.2917 60.2077C31.0601 60.2077 33.2149 59.3526 34.7365 58.482C34.9807 58.3423 35.2278 58.1891 35.4661 58.0302C35.713 57.8655 35.9515 57.7188 36.1886 57.5394C36.3097 57.4478 36.4056 57.3852 36.5216 57.2976C36.6444 57.2049 36.7375 57.1274 36.8633 57.0327C37.2187 56.7654 38.1417 55.9907 38.4818 55.6497L39.6956 54.4689C39.808 54.357 39.8646 54.2658 39.9824 54.149C40.0968 54.0357 40.1738 53.9668 40.2753 53.8354C40.4036 53.6691 41.0121 53.0568 41.1239 52.8532V52.8532Z" fill="url(#paint2_radial_753_3519)"/>
<path fill-rule="evenodd" clip-rule="evenodd" d="M143.424 27.6073C143.424 27.6809 143.446 27.7031 143.52 27.7031H147.67C147.744 27.7031 147.766 27.6809 147.766 27.6073V2.31934C147.766 2.24574 147.744 2.22351 147.67 2.22351H143.424V27.6073H143.424Z" fill="#171637"/>
<path fill-rule="evenodd" clip-rule="evenodd" d="M135.026 48.425C135.026 49.6374 135.288 50.6042 135.65 51.472C136.312 53.0566 137.447 54.2319 138.931 55.0561L139.55 55.363C140.872 55.934 141.722 55.9603 143.136 55.9603C144.838 55.9603 146.239 55.3445 147.52 54.3101C147.77 54.1086 148.406 53.5453 148.564 53.3102L146.169 50.8517L145.698 51.243C145.075 51.7993 144.036 52.3843 143.104 52.3843C142.222 52.3843 141.929 52.4014 141.124 52.0011C140.347 51.6146 139.779 50.95 139.459 50.1542C139.035 49.1007 139.025 47.7175 139.45 46.6549C139.623 46.2202 139.978 45.6609 140.286 45.3524C140.766 44.8727 141.645 44.402 142.369 44.402C143.359 44.402 143.868 44.4025 144.726 44.9509C145.013 45.1342 145.436 45.4728 145.682 45.7191C145.778 45.8149 145.847 45.953 146.009 45.9665C146.049 45.8184 146.202 45.7265 146.305 45.6238L147.853 43.9465C148.053 43.747 148.34 43.391 148.5 43.2844C148.385 43.1127 148.199 42.9194 148.034 42.792C147.93 42.7113 147.884 42.6406 147.788 42.5594C147.689 42.4761 147.602 42.4154 147.503 42.3338C146.331 41.3715 144.715 40.8258 143.167 40.8258C141.9 40.8258 141.158 40.8305 139.939 41.2687L138.991 41.694C138.495 41.9967 138.384 42.0269 137.867 42.4217C137.81 42.465 137.801 42.4773 137.747 42.5251C137.684 42.5797 137.666 42.5835 137.604 42.638C137.519 42.7125 137.466 42.7874 137.379 42.8598C137.066 43.1185 136.522 43.7857 136.309 44.1206C135.519 45.3574 135.025 46.7696 135.025 48.4249L135.026 48.425Z" fill="#171637"/>
<path fill-rule="evenodd" clip-rule="evenodd" d="M108.526 41.0813H106.77V44.6255H108.526V51.9053C108.526 52.4612 108.643 53.1686 108.803 53.5755C108.939 53.9211 109.082 54.2334 109.292 54.5238C109.643 55.0093 110.1 55.3552 110.683 55.5912C111.742 56.0201 113.66 55.9923 114.74 55.629C115.351 55.4234 115.485 55.354 116.029 55.0662V51.7456C115.926 51.7695 115.743 51.8612 115.645 51.9044C114.929 52.2209 114.522 52.2245 113.762 52.2245C113.419 52.2245 113.144 52.0515 112.971 51.8659C112.803 51.6857 112.676 51.3495 112.676 51.0112V44.6253H116.093V41.0811H112.676V37.3773H108.526L108.526 41.0813Z" fill="#171637"/>
<path fill-rule="evenodd" clip-rule="evenodd" d="M40.93 22.8734C41.2351 23.1376 44.1129 24.0779 44.6999 24.2521C47.1109 24.9669 50.3359 25.2472 52.231 27.0975C52.6784 27.5344 53.0078 28.1051 53.1814 28.7341C53.3738 29.4315 53.4348 30.331 53.435 31.0866L54.2168 29.0472C54.8954 26.9911 55.3471 25.7457 55.6594 23.4653C55.7566 22.7549 55.7697 21.6033 55.4906 20.9004C55.3584 20.5677 55.1714 20.2929 54.8974 20.0887C54.5738 19.8475 54.3875 19.73 53.9933 19.588C53.6529 19.4652 53.2765 19.3751 52.8427 19.3336C51.6642 19.2207 51.2088 19.3104 50.1254 19.3042C49.8694 19.3027 49.7276 19.3419 49.4541 19.3378L48.7893 19.3001C47.9176 19.2065 47.8693 19.0632 47.6352 19.0207C47.0529 18.9151 46.2808 18.608 45.7721 18.3921C45.4696 18.2638 45.2029 18.1423 44.9112 18.0078C44.6499 17.8873 44.3444 17.7069 44.0884 17.6128C43.9405 17.4907 43.4324 17.2473 43.2246 17.1384C42.1094 16.5532 37.8967 14.0841 37.1963 13.8069C37.1235 13.7274 36.9525 13.6641 36.8459 13.6134C36.7164 13.5516 36.6053 13.494 36.4835 13.4327C34.7652 12.5689 33.0296 11.855 31.1319 11.3804C28.9928 10.8453 27.5099 10.8323 25.3632 11.0534C24.7376 11.1179 24.0953 11.2384 23.4913 11.291C22.7748 11.346 20.9884 11.7982 20.2703 12.0214C18.3525 12.6177 16.5566 13.4984 15.1495 14.8212C14.5849 15.3518 13.8851 16.2095 13.4679 17.0976C12.5781 18.9924 12.3374 21.6669 13.4904 23.4677C13.7574 23.8847 14.0442 24.2209 14.3626 24.5759L15.9146 25.9929C16.097 26.1472 16.2739 26.2909 16.466 26.4312L17.6187 27.2869L18.5248 27.597C18.8355 27.7208 19.0752 27.8371 19.3442 27.9909C19.8533 28.2822 19.9685 28.4085 20.3599 28.7953C20.6147 29.0472 20.9471 29.5919 21.0835 29.9235C21.1447 30.0721 21.2078 30.193 21.2709 30.3428C21.3366 30.499 21.3863 30.6452 21.4412 30.8111C22.0196 32.5608 22.4453 35.2183 22.6016 37.0263C22.6656 37.7662 22.7663 38.5252 22.8236 39.2628L23.0176 41.5116C23.5869 41.0288 24.2659 40.193 24.7173 39.5549C26.4325 37.1305 27.2977 33.9452 26.2926 30.9732C25.6691 29.1295 24.6474 27.6855 23.7317 26.1889C23.0833 25.1292 22.2131 23.8203 21.8335 22.5941C21.628 21.9301 21.6734 21.6396 21.6734 20.9649L21.7054 20.9329V20.8052L21.7374 20.7733V20.6774L21.7693 20.6455V20.5816L21.8013 20.5178V20.4858L21.8333 20.422V20.39L21.865 20.358V20.3261L21.897 20.2622V20.2302L21.929 20.1983V20.1664L21.9609 20.1344V20.1024L21.9929 20.0705C22.3345 19.2478 23.4281 18.373 24.1818 17.8815C26.8879 16.117 30.0291 16.9769 32.7067 18.3308C32.9413 18.4494 33.1923 18.5723 33.4179 18.7069C33.6141 18.824 33.9604 19.043 34.1549 19.1159C34.2314 19.2053 37.2391 21.0092 37.4045 21.1053C37.9418 21.4175 40.3168 22.6929 40.93 22.8729V22.8734Z" fill="url(#paint3_radial_753_3519)"/>
<path fill-rule="evenodd" clip-rule="evenodd" d="M82.8848 55.6406H87.0356V41.0808H82.8848V55.6406Z" fill="#171637"/>
<path fill-rule="evenodd" clip-rule="evenodd" d="M82.7891 39.4854H87.1634V35.8135H82.7891V39.4854Z" fill="#171637"/>
<defs>
<linearGradient id="paint0_linear_753_3519" x1="6.21284" y1="16.0303" x2="47.6366" y2="16.0303" gradientUnits="userSpaceOnUse">
<stop stop-color="#C62B40"/>
<stop offset="1" stop-color="#D73738"/>
</linearGradient>
<radialGradient id="paint1_radial_753_3519" cx="0" cy="0" r="1" gradientUnits="userSpaceOnUse" gradientTransform="translate(23.036 8.6497) scale(20.6332 12.7878)">
<stop stop-color="#FFCC4C"/>
<stop offset="1" stop-color="#F49117"/>
</radialGradient>
<radialGradient id="paint2_radial_753_3519" cx="0" cy="0" r="1" gradientUnits="userSpaceOnUse" gradientTransform="translate(37.3191 48.3438) scale(8.51601 11.864)">
<stop stop-color="#F9BB09"/>
<stop offset="1" stop-color="#F8AA0E"/>
</radialGradient>
<radialGradient id="paint3_radial_753_3519" cx="0" cy="0" r="1" gradientUnits="userSpaceOnUse" gradientTransform="translate(36.3673 25.6039) rotate(41.6716) scale(17.9733 18.3028)">
<stop stop-color="#FFD56B"/>
<stop offset="1" stop-color="#FF8C08"/>
</radialGradient>
</defs>
</svg>
