<svg width="16" height="17" viewBox="0 0 16 17" fill="none" xmlns="http://www.w3.org/2000/svg">
<path fill-rule="evenodd" clip-rule="evenodd" d="M4.43876 1.84142C5.18343 1.85142 5.7141 2.40942 6.38543 3.11542C6.55143 3.28942 6.73076 3.47942 6.93143 3.67942C7.9041 4.65276 7.62743 5.44676 7.4041 6.08409C7.16143 6.77942 6.95143 7.37943 8.20876 8.63676C9.4661 9.89409 10.0654 9.68409 10.7601 9.43942C11.3981 9.21676 12.1901 8.93809 13.1648 9.91142C13.3628 10.1094 13.5494 10.2868 13.7228 10.4514C14.4314 11.1261 14.9914 11.6588 15.0009 12.4054C15.0081 13.0414 14.6214 13.6908 13.6668 14.6454L13.2441 14.3588L13.6021 14.7074C13.3908 14.9241 12.8288 15.5014 11.7281 15.5081H11.7081C10.0468 15.5081 7.88076 14.1854 5.2701 11.5754C2.64876 8.95476 1.3241 6.78209 1.33404 5.11742C1.3401 4.01742 1.91676 3.45409 2.13343 3.24276L2.15192 3.22256L2.19676 3.17742C3.15343 2.22076 3.81076 1.82742 4.43876 1.84142ZM4.4261 2.84142H4.42076C4.12139 2.84142 3.66674 3.14142 3.03265 3.75735L2.90532 3.8824L2.90676 3.88209C2.90756 3.88209 2.89588 3.89457 2.87734 3.91348L2.83276 3.95809C2.67143 4.11476 2.33743 4.44076 2.33406 5.12276C2.32876 6.07676 2.9561 7.84809 5.97676 10.8681C8.98276 13.8734 10.7514 14.5081 11.7081 14.5081H11.7221C12.4041 14.5041 12.7294 14.1701 12.8861 14.0094C12.9334 13.9608 12.9721 13.9241 12.9994 13.9021C13.6641 13.2334 14.0041 12.7368 14.0008 12.4174C13.9968 12.0921 13.5921 11.7081 13.0328 11.1754C12.8548 11.0068 12.6614 10.8221 12.4574 10.6181C11.9281 10.0908 11.6674 10.1808 11.0908 10.3834C10.2941 10.6628 9.20276 11.0454 7.5021 9.34342C5.80076 7.64276 6.1821 6.55142 6.4601 5.75409C6.66143 5.17809 6.75343 4.91609 6.22476 4.38676C6.0181 4.18009 5.8321 3.98409 5.66076 3.80409C5.13143 3.24809 4.74943 2.84609 4.4261 2.84142ZM10.1648 4.21309C11.5522 4.48242 12.6235 5.55309 12.8935 6.94109C12.9462 7.21309 12.7695 7.47509 12.4988 7.52776C12.4662 7.53376 12.4342 7.53709 12.4022 7.53709C12.1675 7.53709 11.9588 7.37176 11.9122 7.13309C11.7202 6.14642 10.9595 5.38576 9.97416 5.19442C9.70283 5.14176 9.52616 4.87976 9.57883 4.60842C9.6315 4.33709 9.89816 4.15976 10.1648 4.21309ZM10.1249 1.84522C12.8436 2.14722 14.9549 4.25589 15.2596 6.97389C15.2902 7.24856 15.0929 7.49589 14.8189 7.52656C14.8002 7.52856 14.7809 7.52989 14.7622 7.52989C14.5109 7.52989 14.2949 7.34122 14.2662 7.08589C14.0136 4.83522 12.2656 3.08856 10.0142 2.83856C9.74023 2.80789 9.54223 2.56122 9.5729 2.28656C9.6029 2.01256 9.84756 1.81056 10.1249 1.84522Z" fill="#FABB0A"/>
</svg>
