<svg width="16" height="17" viewBox="0 0 16 17" fill="none" xmlns="http://www.w3.org/2000/svg">
<path fill-rule="evenodd" clip-rule="evenodd" d="M7.85116 9.48431C7.40516 9.48431 6.96049 9.33697 6.58849 9.04231L3.59849 6.63164C3.38316 6.45831 3.34982 6.14297 3.52249 5.92831C3.69649 5.71431 4.01116 5.68031 4.22582 5.85297L7.21316 8.26097C7.58849 8.55831 8.11716 8.55831 8.49516 8.25831L11.4525 5.85431C11.6672 5.67898 11.9818 5.71231 12.1565 5.92697C12.3305 6.14097 12.2978 6.45564 12.0838 6.63031L9.12116 9.03831C8.74649 9.33564 8.29849 9.48431 7.85116 9.48431Z" fill="#FABB0A"/>
<mask id="mask0_759_747" style="mask-type:alpha" maskUnits="userSpaceOnUse" x="0" y="1" width="15" height="14">
<path d="M0.666016 1.84106H14.9993V14.8411H0.666016V1.84106Z" fill="white"/>
</mask>
<g mask="url(#mask0_759_747)">
<path fill-rule="evenodd" clip-rule="evenodd" d="M4.55868 13.8411H11.1053C11.1067 13.8397 11.112 13.8411 11.116 13.8411C11.8767 13.8411 12.5513 13.5691 13.0687 13.0524C13.6693 12.4544 13.9993 11.5951 13.9993 10.6331V6.0544C13.9993 4.1924 12.782 2.84106 11.1053 2.84106H4.56002C2.88335 2.84106 1.66602 4.1924 1.66602 6.0544V10.6331C1.66602 11.5951 1.99668 12.4544 2.59668 13.0524C3.11402 13.5691 3.78935 13.8411 4.54935 13.8411H4.55868ZM4.54735 14.8411C3.51868 14.8411 2.60002 14.4677 1.89068 13.7611C1.10068 12.9731 0.666016 11.8624 0.666016 10.6331V6.0544C0.666016 3.6524 2.34002 1.84106 4.56002 1.84106H11.1053C13.3253 1.84106 14.9993 3.6524 14.9993 6.0544V10.6331C14.9993 11.8624 14.5647 12.9731 13.7747 13.7611C13.066 14.4671 12.1467 14.8411 11.116 14.8411H11.1053H4.56002H4.54735Z" fill="#FABB0A"/>
</g>
</svg>
