<svg width="18" height="19" viewBox="0 0 18 19" fill="none" xmlns="http://www.w3.org/2000/svg">
<g clip-path="url(#clip0_775_172)">
<path fill-rule="evenodd" clip-rule="evenodd" d="M3.10505 0.980348C3.67683 0.757868 4.33155 0.605948 5.28969 0.562316C6.24985 0.517964 6.55687 0.507812 9.00108 0.507812C11.4453 0.507812 11.7521 0.518684 12.7117 0.562316C13.6692 0.605228 14.3235 0.757868 14.8964 0.980348C15.4875 1.2101 15.9899 1.51754 16.49 2.01844C16.9902 2.51935 17.2978 3.02097 17.5282 3.61274C17.7507 4.18449 17.9026 4.83912 17.9462 5.79729C17.9898 6.75691 18 7.0637 18 9.50781C18 11.9519 17.9898 12.258 17.9462 13.2183C17.9033 14.1764 17.7507 14.8308 17.5282 15.4029C17.2978 15.9947 16.991 16.4971 16.49 16.9972C15.9891 17.4973 15.4875 17.8049 14.8957 18.0353C14.3235 18.2578 13.6692 18.4097 12.711 18.4533C11.7514 18.4977 11.4446 18.5078 9.00036 18.5078C6.55615 18.5078 6.24985 18.4969 5.28969 18.4533C4.33155 18.4097 3.67791 18.2578 3.10505 18.0353C2.5129 17.8049 2.01154 17.4971 1.51069 16.9972C1.00984 16.4973 0.702316 15.9947 0.472555 15.4029C0.250066 14.8308 0.0981402 14.1765 0.0545065 13.2183C0.0101527 12.2587 0 11.9519 0 9.50781C0 7.0637 0.0101527 6.75691 0.0545065 5.79729C0.0981402 4.83919 0.250066 4.18485 0.472555 3.61274C0.702316 3.02061 1.00977 2.51856 1.51069 2.01844C2.01162 1.51833 2.5129 1.2101 3.10505 0.980348ZM8.99946 6.00781C7.06665 6.00781 5.5 7.57491 5.5 9.50781C5.5 11.4407 7.06665 13.0078 8.99946 13.0078C10.9326 13.0078 12.5 11.4404 12.5 9.50781C12.5 7.57522 10.9326 6.00781 8.99946 6.00781ZM3.5 9.50781C3.5 6.47074 5.96168 4.00781 8.99946 4.00781C12.0369 4.00781 14.5 6.47043 14.5 9.50781C14.5 12.5452 12.0369 15.0078 8.99946 15.0078C5.96168 15.0078 3.5 12.5449 3.5 9.50781Z" fill="white"/>
</g>
<defs>
<clipPath id="clip0_775_172">
<rect width="18" height="18" fill="white" transform="translate(0 0.507812)"/>
</clipPath>
</defs>
</svg>
