<svg width="18" height="19" viewBox="0 0 18 19" fill="none" xmlns="http://www.w3.org/2000/svg">
<g clip-path="url(#clip0_775_28)">
<mask id="path-1-inside-1_775_28" fill="white">
<path d="M17.9959 18.5077V18.507H18.0004V11.9055C18.0004 8.67598 17.3052 6.18823 13.5297 6.18823C11.7147 6.18823 10.4967 7.18423 9.99944 8.12848H9.94694V6.48973H6.36719V18.507H10.0947V12.5565C10.0947 10.9897 10.3917 9.47473 12.3319 9.47473C14.2437 9.47473 14.2722 11.2627 14.2722 12.657V18.5077H17.9959Z"/>
</mask>
<path d="M17.9959 18.5077V18.507H18.0004V11.9055C18.0004 8.67598 17.3052 6.18823 13.5297 6.18823C11.7147 6.18823 10.4967 7.18423 9.99944 8.12848H9.94694V6.48973H6.36719V18.507H10.0947V12.5565C10.0947 10.9897 10.3917 9.47473 12.3319 9.47473C14.2437 9.47473 14.2722 11.2627 14.2722 12.657V18.5077H17.9959Z" fill="white"/>
<path d="M17.9959 18.5077V39.8411H39.3293V18.5077H17.9959ZM17.9959 18.507V-2.82634H-3.3374V18.507H17.9959ZM18.0004 18.507V39.8403H39.3338V18.507H18.0004ZM9.99944 8.12848V29.4618H22.8757L28.8754 18.0687L9.99944 8.12848ZM9.94694 8.12848H-11.3864V29.4618H9.94694V8.12848ZM9.94694 6.48973H31.2803V-14.8436H9.94694V6.48973ZM6.36719 6.48973V-14.8436H-14.9661V6.48973H6.36719ZM6.36719 18.507H-14.9661V39.8403H6.36719V18.507ZM10.0947 18.507V39.8403H31.428V18.507H10.0947ZM14.2722 18.5077H-7.06115V39.8411H14.2722V18.5077ZM39.3293 18.5077V18.507H-3.3374V18.5077H39.3293ZM17.9959 39.8403H18.0004V-2.82634H17.9959V39.8403ZM39.3338 18.507V11.9055H-3.3329V18.507H39.3338ZM39.3338 11.9055C39.3338 9.82557 39.3473 3.00234 35.234 -3.53071C29.6969 -12.3251 20.6842 -15.1451 13.5297 -15.1451V27.5216C12.2046 27.5216 9.63793 27.3108 6.6537 25.8906C3.43616 24.3594 0.860344 21.9541 -0.872207 19.2023C-2.44616 16.7024 -2.97153 14.4895 -3.16073 13.4421C-3.35087 12.3896 -3.3329 11.7522 -3.3329 11.9055H39.3338ZM13.5297 -15.1451C3.44072 -15.1451 -4.85795 -9.44286 -8.87654 -1.81176L28.8754 18.0687C25.8513 23.8113 19.9887 27.5216 13.5297 27.5216V-15.1451ZM9.99944 -13.2049H9.94694V29.4618H9.99944V-13.2049ZM31.2803 8.12848V6.48973H-11.3864V8.12848H31.2803ZM9.94694 -14.8436H6.36719V27.8231H9.94694V-14.8436ZM-14.9661 6.48973V18.507H27.7005V6.48973H-14.9661ZM6.36719 39.8403H10.0947V-2.82634H6.36719V39.8403ZM31.428 18.507V12.5565H-11.2386V18.507H31.428ZM31.428 12.5565C31.428 12.7459 31.4266 13.6021 31.2351 14.7948C31.0496 15.9506 30.5709 18.1831 29.168 20.7278C27.6416 23.4964 25.1471 26.3784 21.4986 28.3988C17.9733 30.351 14.6202 30.8081 12.3319 30.8081V-11.8586C9.07358 -11.8586 4.95574 -11.2122 0.829008 -8.92694C-3.42084 -6.57353 -6.35337 -3.21488 -8.19652 0.12832C-11.3292 5.81048 -11.2386 11.383 -11.2386 12.5565H31.428ZM12.3319 30.8081C9.40484 30.8081 5.25874 30.0789 1.23579 27.2724C-2.74149 24.4978 -4.80842 20.9407 -5.81505 18.3994C-6.7475 16.0454 -6.95095 14.1393 -7.01058 13.4729C-7.07381 12.7662 -7.06115 12.2514 -7.06115 12.657H35.6055C35.6055 12.3654 35.6146 11.1043 35.4863 9.67026C35.3616 8.27648 35.0315 5.66193 33.853 2.68663C32.6003 -0.475967 30.1678 -4.56722 25.6474 -7.72065C21.0815 -10.9059 16.2149 -11.8586 12.3319 -11.8586V30.8081ZM-7.06115 12.657V18.5077H35.6055V12.657H-7.06115ZM14.2722 39.8411H17.9959V-2.82559H14.2722V39.8411Z" fill="white" mask="url(#path-1-inside-1_775_28)"/>
<path d="M0.296875 6.49048H4.02888V18.5077H0.296875V6.49048Z" fill="white"/>
<path d="M2.1615 0.507812C0.96825 0.507812 0 1.47606 0 2.66931C0 3.86256 0.96825 4.85106 2.1615 4.85106C3.35475 4.85106 4.323 3.86256 4.323 2.66931C4.32225 1.47606 3.354 0.507813 2.1615 0.507813V0.507812Z" fill="white"/>
</g>
<defs>
<clipPath id="clip0_775_28">
<rect width="18" height="18" fill="white" transform="translate(0 0.507812)"/>
</clipPath>
</defs>
</svg>
