<svg width="80" height="81" viewBox="0 0 80 81" fill="none" xmlns="http://www.w3.org/2000/svg">
<rect opacity="0.1" y="0.249146" width="80" height="80" rx="10" fill="#89163B"/>
<path fill-rule="evenodd" clip-rule="evenodd" d="M45.5732 53.5824H34.4255C31.3472 53.5824 28.8517 51.2011 28.8517 48.2635V41.7598C28.8517 40.8155 28.4586 39.9099 27.7589 39.2422C26.1378 37.6951 26.3485 35.1318 28.2027 33.845L36.721 27.9331C38.6755 26.5767 41.3232 26.5767 43.2777 27.9331L51.796 33.845C53.6502 35.1318 53.8609 37.6951 52.2398 39.2422C51.54 39.9099 51.147 40.8155 51.147 41.7598V48.2635C51.147 51.2011 48.6515 53.5824 45.5732 53.5824ZM39.9993 37.2491C39.0789 37.2491 38.3327 37.9953 38.3327 38.9158V40.2491H41.666V38.9158C41.666 37.9953 40.9198 37.2491 39.9993 37.2491ZM36.3327 40.2491C36.3327 40.313 36.3387 40.3754 36.3501 40.436C35.3636 40.8272 34.666 41.79 34.666 42.9158V45.5824C34.666 47.0552 35.8599 48.2491 37.3327 48.2491H42.666C44.1388 48.2491 45.3327 47.0552 45.3327 45.5824V42.9158C45.3327 41.79 44.6351 40.8272 43.6486 40.436C43.66 40.3754 43.666 40.313 43.666 40.2491V38.9158C43.666 36.8907 42.0244 35.2491 39.9993 35.2491C37.9743 35.2491 36.3327 36.8907 36.3327 38.9158V40.2491Z" fill="#171637"/>
</svg>
