<svg width="80" height="81" viewBox="0 0 80 81" fill="none" xmlns="http://www.w3.org/2000/svg">
<rect opacity="0.1" y="0.249146" width="80" height="80" rx="10" fill="#89163B"/>
<g clip-path="url(#clip0_753_761)">
<path fill-rule="evenodd" clip-rule="evenodd" d="M30.5712 49.6772C25.3642 44.4702 25.3642 36.028 30.5712 30.8211C35.7782 25.6141 44.2204 25.6141 49.4274 30.8211C54.6344 36.028 54.6344 44.4702 49.4274 49.6772C44.2204 54.8842 35.7782 54.8842 30.5712 49.6772ZM41.0835 47.8387C40.5368 47.9168 40.0303 47.5369 39.9521 46.9901L39.2922 42.3704C39.1874 41.6371 38.6113 41.0609 37.878 40.9562L33.2582 40.2962C32.7115 40.2181 32.3316 39.7116 32.4097 39.1648C32.4878 38.6181 32.9943 38.2382 33.541 38.3163L38.1608 38.9763C39.7741 39.2067 41.0416 40.4743 41.2721 42.0875L41.932 46.7073C42.0102 47.254 41.6303 47.7606 41.0835 47.8387ZM44.6662 42.2761C44.7443 42.8228 45.2508 43.2027 45.7976 43.1246C46.3443 43.0465 46.7242 42.54 46.6461 41.9933L45.9861 37.3735C45.7557 35.7602 44.4881 34.4927 42.8749 34.2622L38.2551 33.6023C37.7084 33.5242 37.2018 33.9041 37.1237 34.4508C37.0456 34.9975 37.4255 35.5041 37.9722 35.5822L42.592 36.2421C43.3253 36.3469 43.9015 36.923 44.0062 37.6563L44.6662 42.2761Z" fill="#171637"/>
</g>
<defs>
<clipPath id="clip0_753_761">
<rect width="32" height="32" fill="white" transform="translate(62.627 40.2491) rotate(135)"/>
</clipPath>
</defs>
</svg>
