<svg width="80" height="81" viewBox="0 0 80 81" fill="none" xmlns="http://www.w3.org/2000/svg">
<rect opacity="0.1" y="0.249146" width="80" height="80" rx="10" fill="#89163B"/>
<path fill-rule="evenodd" clip-rule="evenodd" d="M40 27.9158C34.0325 27.9158 29.1748 32.6677 29.0046 38.594C29.6772 38.1646 30.4762 37.9158 31.3333 37.9158C33.7266 37.9158 35.6667 39.8559 35.6667 42.2491V44.9158C35.6667 47.309 33.7266 49.2491 31.3333 49.2491C28.9401 49.2491 27 47.309 27 44.9158V42.5824V42.2491V38.9158C27 31.7361 32.8203 25.9158 40 25.9158C47.1797 25.9158 53 31.7361 53 38.9158V42.2491V42.5824V42.9158V44.9158V45.5824C53 50.553 48.9706 54.5824 44 54.5824H40C39.4477 54.5824 39 54.1347 39 53.5824C39 53.0302 39.4477 52.5824 40 52.5824H44C46.6235 52.5824 48.9099 51.1392 50.1085 49.0034C49.6575 49.1625 49.1722 49.2491 48.6667 49.2491C46.2734 49.2491 44.3333 47.309 44.3333 44.9158V42.2491C44.3333 39.8559 46.2734 37.9158 48.6667 37.9158C49.5238 37.9158 50.3228 38.1646 50.9954 38.594C50.8252 32.6677 45.9675 27.9158 40 27.9158Z" fill="#28303F"/>
</svg>
