<svg width="18" height="19" viewBox="0 0 18 19" fill="none" xmlns="http://www.w3.org/2000/svg">
<g clip-path="url(#clip0_801_498)">
<path d="M12.0271 2.01114V2.00781H12.8711L13.1794 2.07108C13.385 2.11215 13.5717 2.16597 13.7394 2.23256C13.9071 2.29916 14.0694 2.37685 14.2263 2.46564C14.3832 2.55442 14.5255 2.64489 14.6532 2.737C14.7798 2.82802 14.8934 2.92458 14.9941 3.02668C15.0936 3.1299 15.2489 3.15654 15.4599 3.10659C15.6709 3.05665 15.8981 2.98727 16.1416 2.89849C16.385 2.8097 16.6258 2.70982 16.8638 2.59882C17.1019 2.48783 17.2469 2.41736 17.2988 2.38739C17.3497 2.35633 17.3768 2.33968 17.38 2.33745L17.3832 2.33245L17.3995 2.32413L17.4157 2.3158L17.4319 2.30748L17.4482 2.29916L17.4514 2.29416L17.4563 2.29083L17.4612 2.2875L17.4644 2.28251L17.4806 2.27751L17.4968 2.27418L17.4936 2.29916L17.4887 2.32413L17.4806 2.3491L17.4725 2.37407L17.4644 2.39072L17.4563 2.40737L17.4482 2.43234C17.4427 2.44899 17.4373 2.47118 17.4319 2.49893C17.4265 2.52669 17.3751 2.63766 17.2777 2.8319C17.1803 3.02613 17.0586 3.22313 16.9125 3.42291C16.7665 3.62268 16.6355 3.77362 16.5198 3.87574C16.4029 3.97896 16.3255 4.05109 16.2876 4.09216C16.2498 4.13433 16.2038 4.17317 16.1497 4.2087L16.0685 4.26364L16.0523 4.27196L16.0361 4.28029L16.0328 4.28528L16.028 4.28861L16.0231 4.29194L16.0198 4.29694L16.0036 4.30526L15.9874 4.31358L15.9841 4.31858L15.9793 4.32191L15.9744 4.32524L15.9711 4.33023L15.9679 4.33523L15.963 4.33856L15.9582 4.34189L15.9549 4.34688H16.0361L16.4905 4.24699C16.7935 4.1804 17.083 4.09994 17.3589 4.00559L17.7971 3.85576L17.8458 3.83911L17.8702 3.83079L17.8864 3.82246L17.9026 3.81414L17.9188 3.80581L17.9351 3.79749L17.9675 3.7925L18 3.78917V3.82246L17.9919 3.82579L17.9838 3.83079L17.9805 3.83578L17.9757 3.83911L17.9708 3.84244L17.9675 3.84744L17.9643 3.85243L17.9594 3.85576L17.9546 3.85909L17.9513 3.86408L17.9481 3.86908L17.9432 3.87241L17.9351 3.88906L17.927 3.9057L17.9221 3.90903C17.9199 3.91236 17.8512 4.00669 17.716 4.19205C17.5807 4.37851 17.5077 4.47284 17.4968 4.47507C17.486 4.4784 17.4709 4.49505 17.4514 4.52502C17.433 4.55608 17.3183 4.67984 17.1073 4.89627C16.8963 5.1127 16.6897 5.30525 16.4873 5.47396C16.2839 5.64377 16.1811 5.85242 16.1789 6.09993C16.1757 6.34633 16.1632 6.62492 16.1416 6.93567C16.1199 7.24644 16.0794 7.58217 16.0198 7.94288C15.9603 8.3036 15.8684 8.71148 15.7439 9.16653C15.6195 9.62157 15.468 10.0655 15.2894 10.4984C15.1109 10.9312 14.9243 11.3197 14.7295 11.6638C14.5347 12.0078 14.3562 12.2992 14.1939 12.5378C14.0316 12.7764 13.8666 13.0011 13.6988 13.212C13.5311 13.4229 13.319 13.6604 13.0626 13.9246C12.8051 14.1876 12.6644 14.3319 12.6406 14.3574C12.6157 14.3818 12.5097 14.4729 12.3225 14.6305C12.1363 14.7892 11.9362 14.9479 11.7219 15.1066C11.5088 15.2642 11.3129 15.3957 11.1344 15.5012C10.9558 15.6066 10.7405 15.727 10.4884 15.8624C10.2373 15.9989 9.96573 16.1255 9.67358 16.242C9.38142 16.3585 9.07304 16.4667 8.74842 16.5666C8.42381 16.6665 8.11001 16.7442 7.80703 16.7997C7.50407 16.8552 7.16051 16.9024 6.77638 16.9412L6.20018 16.9995V17.0078H5.14518V16.9995L5.00721 16.9912C4.91525 16.9856 4.8395 16.9801 4.77998 16.9745C4.72048 16.969 4.49594 16.9384 4.1064 16.883C3.71686 16.8275 3.41119 16.772 3.18936 16.7165C2.96755 16.661 2.63751 16.5555 2.19928 16.4002C1.76105 16.2448 1.38611 16.0877 1.07448 15.929C0.763937 15.7714 0.569167 15.6715 0.490171 15.6293C0.412263 15.5883 0.324617 15.5372 0.227232 15.4762L0.0811542 15.3846L0.0779243 15.3796L0.0730388 15.3763L0.0681695 15.373L0.0649234 15.368L0.0486925 15.3596L0.0324617 15.3513L0.0292317 15.3463L0.0243463 15.343L0.019477 15.3397L0.0162308 15.3347L0.0130009 15.3297L0.00811542 15.3263H0V15.2931L0.0162308 15.2964L0.0324617 15.3014L0.1055 15.3097C0.154193 15.3152 0.28675 15.3236 0.503156 15.3347C0.719578 15.3458 0.949504 15.3458 1.19297 15.3347C1.43643 15.3236 1.68531 15.2986 1.93959 15.2598C2.19387 15.2209 2.49414 15.1543 2.8404 15.06C3.18667 14.9656 3.50479 14.8535 3.79479 14.7237C4.0837 14.5927 4.28927 14.4951 4.41156 14.4307C4.53274 14.3674 4.71777 14.2498 4.96664 14.0777L5.33995 13.8197L5.34319 13.8147L5.34806 13.8114L5.35295 13.808L5.35618 13.803L5.35942 13.798L5.36429 13.7947L5.36918 13.7914L5.37241 13.7864L5.38864 13.7814L5.40487 13.7781L5.40812 13.7614L5.41298 13.7448L5.41787 13.7414L5.4211 13.7364L5.29125 13.7281C5.20469 13.7226 5.12083 13.717 5.03968 13.7115C4.95852 13.7059 4.83138 13.681 4.65825 13.6366C4.48513 13.5922 4.29848 13.5256 4.09829 13.4368C3.89811 13.348 3.70334 13.2425 3.51398 13.1205C3.32463 12.9984 3.18774 12.8968 3.10334 12.8158C3.02002 12.7359 2.91181 12.6227 2.77872 12.4762C2.64671 12.3286 2.53201 12.1771 2.43463 12.0217C2.33724 11.8663 2.24419 11.687 2.15547 11.484L2.02074 11.181L2.01262 11.156L2.00451 11.131L1.99964 11.1144L1.99639 11.0977L2.02074 11.101L2.04509 11.106L2.22362 11.131C2.34266 11.1477 2.52932 11.1532 2.78359 11.1477C3.03788 11.1421 3.21371 11.131 3.31109 11.1144C3.40848 11.0977 3.46799 11.0866 3.48963 11.0811L3.52209 11.0727L3.56267 11.0644L3.60325 11.0561L3.60649 11.0511L3.61136 11.0478L3.61625 11.0444L3.61948 11.0394L3.58702 11.0311L3.55455 11.0228L3.52209 11.0145L3.48963 11.0061L3.45717 10.9978C3.43553 10.9923 3.39767 10.9812 3.34355 10.9645C3.28946 10.9479 3.14338 10.8868 2.90532 10.7814C2.66728 10.676 2.47791 10.5733 2.33724 10.4734C2.19622 10.3732 2.06176 10.2637 1.93472 10.1454C1.80812 10.0256 1.66908 9.87129 1.51758 9.68262C1.3661 9.49394 1.23085 9.27474 1.11181 9.02502C0.992792 8.77529 0.903522 8.53668 0.844004 8.30914C0.784724 8.08295 0.745615 7.8517 0.727158 7.61825L0.697926 7.26863L0.714157 7.27196L0.730388 7.27696L0.746619 7.28528L0.762849 7.29361L0.77908 7.30193L0.795311 7.31025L1.04689 7.42679C1.21462 7.50449 1.42291 7.57108 1.67178 7.62657C1.92066 7.68206 2.06943 7.71259 2.11812 7.71813L2.19116 7.72646H2.33724L2.33401 7.72146L2.32913 7.71813L2.32426 7.7148L2.32101 7.70981L2.31778 7.70482L2.31289 7.70149L2.30803 7.69816L2.30478 7.69316L2.28855 7.68484L2.27232 7.67651L2.26909 7.67152L2.2642 7.66819L2.25933 7.66486L2.25609 7.65987L2.23986 7.65154L2.22362 7.64322L2.22039 7.63822C2.21715 7.63599 2.17061 7.60048 2.08079 7.53167C1.99206 7.46175 1.89901 7.3713 1.80162 7.26031C1.70424 7.14932 1.60685 7.03278 1.50947 6.9107C1.4119 6.78834 1.32501 6.65742 1.24977 6.51947C1.17404 6.38074 1.09396 6.20425 1.00956 5.99005C0.926245 5.77696 0.862945 5.5622 0.819657 5.34577C0.776386 5.12934 0.75204 4.9157 0.746619 4.70482C0.741214 4.49393 0.746619 4.31358 0.762849 4.16375C0.77908 4.01392 0.811542 3.84466 0.860234 3.65598C0.908927 3.46731 0.979271 3.26753 1.07124 3.05665L1.2092 2.74033L1.21731 2.71536L1.22543 2.69039L1.23031 2.68706L1.23354 2.68206L1.23679 2.67707L1.24166 2.67374L1.24654 2.67707L1.24977 2.68206L1.25302 2.68706L1.25789 2.69039L1.26278 2.69372L1.26601 2.69871L1.26925 2.70371L1.27412 2.70704L1.28224 2.72368L1.29035 2.74033L1.29524 2.74366L1.29847 2.74866L1.51758 2.99838C1.66366 3.16486 1.8368 3.35077 2.03697 3.55609C2.23716 3.76141 2.34807 3.86796 2.3697 3.87574C2.39135 3.88461 2.41839 3.91013 2.45086 3.95232C2.48332 3.99339 2.59153 4.09161 2.77547 4.24699C2.95943 4.40237 3.20019 4.58273 3.49775 4.78806C3.79532 4.99338 4.12534 5.19594 4.48783 5.39572C4.85033 5.59549 5.23987 5.77584 5.65645 5.93678C6.07304 6.09772 6.3652 6.20315 6.53291 6.2531C6.70064 6.30304 6.98738 6.36685 7.39315 6.44455C7.79892 6.52225 8.10461 6.57219 8.31019 6.59438C8.51579 6.61658 8.65646 6.62934 8.73219 6.63267L8.84581 6.636L8.84258 6.61103L8.83769 6.58606L8.80523 6.37796C8.78359 6.23923 8.77277 6.04499 8.77277 5.79527C8.77277 5.54555 8.79171 5.31525 8.82958 5.10437C8.86746 4.89349 8.92427 4.67984 9 4.46342C9.07575 4.24699 9.14988 4.07328 9.22236 3.94233C9.29595 3.81247 9.39225 3.66431 9.51127 3.49782C9.63031 3.33134 9.7845 3.15932 9.97385 2.98173C10.1632 2.80414 10.3796 2.64599 10.6231 2.50726C10.8665 2.36853 11.0911 2.26308 11.2967 2.19094C11.5023 2.11881 11.6754 2.07162 11.8161 2.04943C11.9567 2.02724 12.0271 2.01447 12.0271 2.01114V2.01114Z" fill="white" stroke="white" stroke-width="1.12646"/>
</g>
<defs>
<clipPath id="clip0_801_498">
<rect width="18" height="18" fill="white" transform="translate(0 0.507812)"/>
</clipPath>
</defs>
</svg>
